<?xml version="1.0" encoding="utf-8"?>
<!-- Generator: Adobe Illustrator 14.0.0, SVG Export Plug-In . SVG Version: 6.00 Build 43363)  -->
<!DOCTYPE svg PUBLIC "-//W3C//DTD SVG 1.1//EN" "http://www.w3.org/Graphics/SVG/1.1/DTD/svg11.dtd">
<svg version="1.1" id="Layer_3" xmlns="http://www.w3.org/2000/svg" xmlns:xlink="http://www.w3.org/1999/xlink" x="0px" y="0px"
	 width="1910.212px" height="208.701px" viewBox="0 0 1910.212 208.701" enable-background="new 0 0 1910.212 208.701"
	 xml:space="preserve">
<circle fill="#260C02" cx="62.087" cy="83.22" r="3.5"/>
<circle fill="#260C02" cx="144.788" cy="80.22" r="1.5"/>
<circle fill="#260C02" cx="233.788" cy="84.22" r="1.5"/>
<circle fill="#260C02" cx="533.288" cy="83.72" r="3"/>
<circle fill="#260C02" cx="836.935" cy="84.669" r="2"/>
<circle fill="#260C02" cx="1055.522" cy="85.595" r="2.5"/>
<circle fill="#F7EBBA" cx="139.466" cy="172.644" r="2"/>
<circle fill="#F7EBBA" cx="408.288" cy="174.72" r="3"/>
<circle fill="#F7EBBA" cx="572.288" cy="172.72" r="2"/>
<circle fill="#F7EBBA" cx="809.788" cy="177.22" r="1.5"/>
<g>
	<rect x="-5.777" y="-0.28" fill="#260C02" width="1938.774" height="77.421"/>
	<rect x="-3.267" y="183.067" fill="#F7EBBA" width="1947.515" height="27.001"/>
	<g>
		<circle fill="#FFFFFF" cx="8.368" cy="64.719" r="4.959"/>
		<circle fill="#FFFFFF" cx="34.492" cy="68.876" r="2.479"/>
		<circle fill="#FFFFFF" cx="48.141" cy="67.581" r="4.132"/>
		<circle fill="#FFFFFF" cx="70.029" cy="68.876" r="2.479"/>
		<circle fill="#FFFFFF" cx="102.261" cy="66.397" r="1.653"/>
		<circle fill="#FFFFFF" cx="53.626" cy="192.475" r="3.306"/>
		<circle fill="#FFFFFF" cx="89.038" cy="190.732" r="2.479"/>
		<circle fill="#FFFFFF" cx="305.153" cy="65.984" r="2.066"/>
		<circle fill="#FFFFFF" cx="329.946" cy="65.984" r="2.066"/>
		<circle fill="#FFFFFF" cx="354.74" cy="67.636" r="1.24"/>
		<circle fill="#FFFFFF" cx="400.608" cy="67.223" r="1.653"/>
		<circle fill="#FFFFFF" cx="241.931" cy="68.876" r="1.653"/>
		<circle fill="#FFFFFF" cx="439.864" cy="70.942" r="1.24"/>
		<circle fill="#FFFFFF" cx="421.269" cy="67.223" r="1.653"/>
		<circle fill="#FFFFFF" cx="435.318" cy="189.537" r="0.826"/>
		<circle fill="#FFFFFF" cx="504.327" cy="63.504" r="1.24"/>
		<circle fill="#FFFFFF" cx="517.128" cy="69.69" r="1.24"/>
		<circle fill="#FFFFFF" cx="525.401" cy="64.744" r="2.479"/>
		<circle fill="#FFFFFF" cx="479.946" cy="62.265" r="0.826"/>
		<circle fill="#FFFFFF" cx="529.153" cy="189.521" r="1.24"/>
		<circle fill="#FFFFFF" cx="570.926" cy="69.901" r="0.827"/>
		<circle fill="#FFFFFF" cx="564.657" cy="68.463" r="2.066"/>
		<circle fill="#FFFFFF" cx="550.673" cy="65.682" r="1.24"/>
		<circle fill="#FFFFFF" cx="622.401" cy="69.268" r="0.826"/>
		<circle fill="#FFFFFF" cx="608.901" cy="65.049" r="2.066"/>
		<circle fill="#FFFFFF" cx="646.062" cy="67.223" r="1.653"/>
		<circle fill="#FFFFFF" cx="642.445" cy="71.167" r="1.24"/>
		<circle fill="#FFFFFF" cx="678.099" cy="70.112" r="1.653"/>
		<circle fill="#FFFFFF" cx="668.79" cy="68.463" r="2.893"/>
		<circle fill="#FFFFFF" cx="969.202" cy="67.223" r="1.653"/>
		<circle fill="#FFFFFF" cx="849.368" cy="187.058" r="1.653"/>
		<circle fill="#FFFFFF" cx="957.635" cy="189.1" r="2.066"/>
		<circle fill="#FFFFFF" cx="860.524" cy="66.81" r="1.24"/>
		<circle fill="#FFFFFF" cx="921.269" cy="67.223" r="1.653"/>
		<circle fill="#FFFFFF" cx="947.715" cy="68.876" r="2.479"/>
		<circle fill="#FFFFFF" cx="711.765" cy="64.331" r="1.24"/>
		<circle fill="#FFFFFF" cx="741.517" cy="70.942" r="1.24"/>
		<circle fill="#FFFFFF" cx="681.264" cy="62.307" r="1.653"/>
		<circle fill="#FFFFFF" cx="558.057" cy="69.901" r="1.653"/>
		<circle fill="#FFFFFF" cx="637.78" cy="65.942" r="3.306"/>
		<circle fill="#FFFFFF" cx="729.129" cy="190.362" r="2.479"/>
		<circle fill="#FFFFFF" cx="847.302" cy="66.81" r="1.24"/>
		<circle fill="#FFFFFF" cx="787.798" cy="68.463" r="1.24"/>
		<circle fill="#FFFFFF" cx="779.368" cy="192.72" r="1"/>
		<circle fill="#FFFFFF" cx="1019.79" cy="69.235" r="2"/>
		<circle fill="#FFFFFF" cx="1584.808" cy="200.273" r="1.531"/>
		<circle fill="#FFFFFF" cx="1353.167" cy="190.701" r="1.915"/>
		<circle fill="#FFFFFF" cx="1148.327" cy="62.437" r="1.531"/>
		<circle fill="#FFFFFF" cx="1561.452" cy="68.18" r="1.914"/>
		<circle fill="#FFFFFF" cx="1481.431" cy="70.094" r="3.063"/>
		<circle fill="#FFFFFF" cx="1705.031" cy="62.437" r="0.766"/>
		<circle fill="#FFFFFF" cx="1743.319" cy="60.905" r="1.532"/>
		<circle fill="#FFFFFF" cx="1198.101" cy="62.437" r="3.063"/>
		<circle fill="#FFFFFF" cx="1289.608" cy="65.117" r="1.914"/>
		<circle fill="#FFFFFF" cx="1326.364" cy="60.522" r="1.915"/>
		<circle fill="#FFFFFF" cx="1540.011" cy="187.638" r="1.915"/>
		<circle fill="#FFFFFF" cx="1799.985" cy="192.615" r="2.297"/>
		<circle fill="#FFFFFF" cx="1227.583" cy="191.466" r="1.915"/>
		<circle fill="#FFFFFF" cx="1103.147" cy="200.272" r="3.063"/>
		<circle fill="#FFFFFF" cx="1146.412" cy="68.946" r="1.149"/>
		<circle fill="#FFFFFF" cx="1231.794" cy="63.202" r="0.766"/>
		<circle fill="#FFFFFF" cx="1383.031" cy="62.054" r="1.148"/>
		<circle fill="#FFFFFF" cx="1439.696" cy="55.928" r="2.68"/>
		<circle fill="#FFFFFF" cx="1466.881" cy="62.437" r="2.297"/>
		<circle fill="#FFFFFF" cx="1646.833" cy="64.734" r="3.829"/>
		<circle fill="#FFFFFF" cx="1718.05" cy="64.734" r="3.063"/>
		<circle fill="#FFFFFF" cx="1856.269" cy="67.414" r="2.68"/>
		<circle fill="#FFFFFF" cx="1873.88" cy="62.054" r="1.915"/>
		<circle fill="#FFFFFF" cx="1907.029" cy="64.423" r="1.531"/>
		<circle fill="#FFFFFF" cx="1395.666" cy="63.202" r="3.063"/>
		<circle fill="#FFFFFF" cx="1263.19" cy="63.202" r="1.531"/>
		<circle fill="#FFFFFF" cx="1244.429" cy="58.991" r="1.149"/>
		<circle fill="#FFFFFF" cx="1547.286" cy="57.076" r="2.297"/>
		<circle fill="#FFFFFF" cx="1585.956" cy="67.414" r="4.212"/>
		<circle fill="#FFFFFF" cx="1628.456" cy="63.968" r="1.532"/>
		<circle fill="#FFFFFF" cx="1772.8" cy="58.991" r="1.915"/>
		<circle fill="#FFFFFF" cx="1815.683" cy="59.757" r="1.149"/>
		<circle fill="#FFFFFF" cx="1839.421" cy="64.351" r="1.148"/>
		<path fill="#FFFFFF" d="M1906.288,72.239c-2.76,0-5,2.25-5,5c0-1.802-0.975-3.374-2.414-4.254c0.405-0.47,0.659-1.074,0.659-1.742
			c0-1.48-1.2-2.68-2.681-2.68c-1.479,0-2.68,1.2-2.68,2.68c0,0.486,0.14,0.937,0.366,1.33c-1.895,0.714-3.251,2.532-3.251,4.667
			c0-2.75-2.24-5-5-5s-5,2.25-5,5c0-2.75-2.25-5-5-5c-2.76,0-5,2.25-5,5c0-2.75-2.25-5-5-5c-2.76,0-5,2.25-5,5c0-2.75-2.25-5-5-5
			c-2.76,0-5,2.25-5,5c0-2.75-2.25-5-5-5c-2.76,0-5,2.25-5,5c0-2.75-2.25-5-5-5c-2.73,0-4.95,2.19-5,4.9c-0.061-2.71-2.28-4.9-5-4.9
			c-0.101,0-0.194,0.024-0.294,0.03c0.009-0.087,0.026-0.171,0.026-0.26c0-1.48-1.2-2.68-2.68-2.68c-1.48,0-2.681,1.2-2.681,2.68
			c0,1.06,0.62,1.967,1.514,2.402c-0.557,0.806-0.886,1.779-0.886,2.828c0-2.75-2.25-5-5-5c-2.73,0-4.95,2.19-5,4.9
			c-0.061-2.71-2.28-4.9-5-4.9c-2.76,0-5,2.25-5,5c0-2.75-2.25-5-5-5c-2.74,0-4.97,2.21-5,4.93c-0.034-2.328-1.678-4.271-3.86-4.786
			c2.289-0.043,4.134-1.905,4.134-4.204c0-2.326-1.886-4.212-4.212-4.212s-4.212,1.886-4.212,4.212c0,1.957,1.341,3.586,3.148,4.06
			c-2.759,0.001-4.998,2.25-4.998,5c0-2.75-2.25-5-5-5c-2.74,0-4.97,2.21-5,4.93c-0.037-2.531-1.979-4.596-4.446-4.875
			c0.139-0.323,0.216-0.679,0.216-1.052c0-1.48-1.2-2.68-2.68-2.68c-1.48,0-2.681,1.2-2.681,2.68c0,0.966,0.517,1.806,1.283,2.277
			c-1.03,0.917-1.692,2.239-1.692,3.719c0-2.75-2.25-5-5-5c-2.74,0-4.97,2.21-5,4.93c-0.04-2.72-2.271-4.93-5-4.93
			c-2.76,0-5,2.25-5,5c0-1.877-1.061-3.501-2.601-4.356c0.5-0.814,0.803-1.763,0.803-2.789c0-2.96-2.399-5.36-5.36-5.36
			s-5.36,2.4-5.36,5.36c0,2.15,1.273,3.991,3.101,4.845c-0.353,0.672-0.573,1.423-0.582,2.23c-0.04-2.72-2.271-4.93-5-4.93
			c-2.76,0-5,2.25-5,5c0-2.75-2.25-5-5-5c-2.74,0-4.97,2.21-5,4.93c-0.04-2.72-2.271-4.93-5-4.93c-2.76,0-5,2.25-5,5
			c0-2.176-1.417-4.019-3.367-4.702c1.051-0.682,1.75-1.862,1.75-3.209c0-2.114-1.714-3.829-3.828-3.829
			c-2.115,0-3.829,1.714-3.829,3.829c0,1.5,0.871,2.786,2.128,3.414c-1.656,0.792-2.818,2.453-2.854,4.397
			c-0.061-2.71-2.28-4.9-5-4.9c-2.76,0-5,2.25-5,5c0-1.814-0.989-3.395-2.445-4.271c0.09-0.306,0.152-0.624,0.152-0.959
			c0-1.903-1.542-3.446-3.445-3.446s-3.446,1.543-3.446,3.446c0,0.675,0.202,1.301,0.538,1.833c-0.813,0.871-1.33,2.021-1.354,3.298
			c-0.061-2.71-2.28-4.9-5-4.9c-1.307,0-2.486,0.516-3.377,1.338c0-0.013,0.004-0.024,0.004-0.037c0-1.48-1.2-2.68-2.68-2.68
			c-1.107,0-2.057,0.671-2.466,1.629c-0.472-0.148-0.962-0.25-1.481-0.25c-2.76,0-5,2.25-5,5c0-2.75-2.25-5-5-5c-2.76,0-5,2.25-5,5
			c0-2.75-2.24-5-5-5s-5,2.25-5,5c0-2.75-2.25-5-5-5c-2.76,0-5,2.25-5,5c0-1.99-1.187-3.705-2.88-4.508
			c0.527-0.605,0.858-1.388,0.858-2.254c0-1.903-1.543-3.446-3.445-3.446c-1.903,0-3.446,1.543-3.446,3.446
			c0,1.034,0.465,1.951,1.187,2.582c-1.366,0.895-2.273,2.434-2.273,4.18c0-2.75-2.25-5-5-5c-0.019,0-0.035,0.005-0.054,0.005
			c-0.077-1.199-1.063-2.15-2.282-2.15c-1.27,0-2.298,1.029-2.298,2.297c0,0.68,0.302,1.285,0.771,1.706
			c-0.684,0.837-1.116,1.885-1.138,3.042c-0.061-2.71-2.28-4.9-5-4.9c-2.76,0-5,2.25-5,5c0-2.75-2.25-5-5-5c-2.73,0-4.95,2.19-5,4.9
			c-0.061-2.71-2.28-4.9-5-4.9c-2.76,0-5,2.25-5,5c0-2.75-2.25-5-5-5c-2.74,0-4.97,2.21-5,4.93c-0.04-2.72-2.271-4.93-5-4.93
			c-2.76,0-5,2.25-5,5c0-2.75-2.25-5-5-5c-2.74,0-4.97,2.21-5,4.93c-0.012-0.767-0.212-1.484-0.533-2.132
			c1.59-0.723,2.702-2.316,2.702-4.177c0-2.538-2.058-4.595-4.595-4.595s-4.595,2.057-4.595,4.595c0,0.6,0.123,1.169,0.332,1.694
			c-1.926,0.698-3.312,2.529-3.312,4.686c0-2.75-2.25-5-5-5c-2.74,0-4.97,2.21-5,4.93c-0.04-2.72-2.271-4.93-5-4.93
			c-2.76,0-5,2.25-5,5c0-2.495-1.857-4.56-4.255-4.924c1.56-0.33,2.73-1.712,2.73-3.369c0-1.903-1.543-3.446-3.446-3.446
			c-1.902,0-3.445,1.543-3.445,3.446c0,1.651,1.163,3.027,2.713,3.364c-2.406,0.342-4.27,2.379-4.297,4.86
			c-0.04-2.72-2.271-4.93-5-4.93c-2.76,0-5,2.25-5,5c0-2.75-2.25-5-5-5c-2.74,0-4.97,2.21-5,4.93c-0.04-2.72-2.271-4.93-5-4.93
			c-2.76,0-5,2.25-5,5c0-2.75-2.25-5-5-5c-2.74,0-4.97,2.21-5,4.93c-0.04-2.72-2.271-4.93-5-4.93c-2.76,0-5,2.25-5,5
			c0-1.159-0.416-2.216-1.085-3.066c0.822-0.549,1.364-1.484,1.364-2.547c0-1.692-1.372-3.063-3.063-3.063
			c-1.692,0-3.063,1.372-3.063,3.063c0,0.238,0.033,0.467,0.085,0.689c-2.367,0.365-4.192,2.373-4.237,4.824
			c-0.061-2.71-2.28-4.9-5-4.9c-2.76,0-5,2.25-5,5c0-1.94-1.131-3.613-2.756-4.441c0.036-0.13,0.062-0.265,0.062-0.407
			c0-0.846-0.686-1.532-1.532-1.532c-0.819,0-1.482,0.645-1.523,1.455c-2.373,0.36-4.205,2.37-4.25,4.825
			c-0.061-2.71-2.28-4.9-5-4.9c-2.76,0-5,2.25-5,5c0-2.75-2.24-5-5-5c-1.243,0-2.367,0.474-3.242,1.227
			c0.172-0.322,0.278-0.684,0.278-1.075c0-1.269-1.028-2.297-2.298-2.297c-1.269,0-2.297,1.029-2.297,2.297
			c0,0.192,0.031,0.377,0.075,0.556c-0.742-0.438-1.596-0.708-2.517-0.708c-2.76,0-5,2.25-5,5c0-2.75-2.25-5-5-5c-2.76,0-5,2.25-5,5
			c0-2.747-2.245-4.994-4.991-4.999c-0.55-1.686-2.117-2.912-3.986-2.912c-2.012,0-3.688,1.413-4.106,3.298
			c-0.591-0.248-1.237-0.387-1.916-0.387c-2.76,0-5,2.25-5,5c0-1.693-0.857-3.192-2.155-4.098c0.054,0.004,0.104,0.016,0.159,0.016
			c1.058,0,1.914-0.857,1.914-1.914c0-1.058-0.856-1.915-1.914-1.915c-1.057,0-1.914,0.857-1.914,1.915
			c0,0.495,0.193,0.941,0.501,1.281c-0.503-0.171-1.032-0.285-1.591-0.285c-2.73,0-4.95,2.19-5,4.9c-0.061-2.71-2.28-4.9-5-4.9
			c-2.76,0-5,2.25-5,5c0-1.793-0.966-3.361-2.395-4.244c0.538-0.552,0.872-1.304,0.872-2.136c0-1.692-1.371-3.063-3.063-3.063
			c-1.691,0-3.062,1.371-3.062,3.063c0,0.686,0.233,1.312,0.613,1.822c-1.718,0.769-2.929,2.468-2.965,4.457
			c-0.061-2.71-2.28-4.9-5-4.9c-2.76,0-5,2.25-5,5c0-2.75-2.25-5-5-5c-2.74,0-4.97,2.21-5,4.93c-0.004-0.25-0.045-0.491-0.084-0.731
			c0.143-0.299,0.229-0.63,0.229-0.983c0-1.263-1.02-2.286-2.279-2.295c-0.716-0.505-1.569-0.812-2.49-0.882
			c-0.346-0.832-1.164-1.417-2.121-1.417c-1.27,0-2.298,1.029-2.298,2.297c0,0.331,0.073,0.643,0.198,0.927
			c-0.71,0.864-1.154,1.955-1.154,3.155c0-2.75-2.25-5-5-5c-2.74,0-4.97,2.21-5,4.93c-0.04-2.72-2.271-4.93-5-4.93
			c-2.76,0-5,2.25-5,5c0-2.75-2.25-5-5-5c-2.74,0-4.97,2.21-5,4.93c-0.04-2.72-2.271-4.93-5-4.93c-2.76,0-5,2.25-5,5
			c0-2.75-2.25-5-5-5c-0.095,0-0.184,0.022-0.276,0.028c-0.701-2.145-2.694-3.705-5.073-3.705c-2.385,0-4.382,1.567-5.078,3.72
			c-2.557,0.221-4.572,2.353-4.572,4.957c0-2.75-2.25-5-5-5c-2.74,0-4.97,2.21-5,4.93c-0.04-2.72-2.271-4.93-5-4.93
			c-2.76,0-5,2.25-5,5c0-1.834-1.012-3.428-2.495-4.298c1.326-0.479,2.28-1.738,2.28-3.229c0-1.903-1.543-3.446-3.445-3.446
			c-1.903,0-3.446,1.543-3.446,3.446c0,1.053,0.482,1.984,1.228,2.616c-2.321,0.414-4.094,2.421-4.121,4.842
			c-0.04-2.72-2.271-4.93-5-4.93c-2.76,0-5,2.25-5,5c0-2.75-2.25-5-5-5c-2.73,0-4.95,2.19-5,4.9c-0.061-2.71-2.28-4.9-5-4.9
			c-2.76,0-5,2.25-5,5c0-2.75-2.25-5-5-5c-2.76,0-5,2.25-5,5c0-2.065-1.27-3.848-3.066-4.608c-0.075-1.413-1.234-2.537-2.666-2.537
			c-1.479,0-2.68,1.2-2.68,2.68c0,0.257,0.048,0.501,0.115,0.737c-1.036,0.917-1.703,2.242-1.703,3.728c0-2.75-2.24-5-5-5
			c-2.73,0-4.95,2.19-5,4.9c-0.061-2.71-2.28-4.9-5-4.9c-2.76,0-5,2.25-5,5c0-2.75-2.24-5-5-5c-2.73,0-4.95,2.19-5,4.9
			c-0.044-1.95-1.213-3.615-2.874-4.405c0.914-0.53,1.535-1.508,1.535-2.64c0-1.692-1.371-3.063-3.063-3.063
			c-1.691,0-3.062,1.371-3.062,3.063c0,0.951,0.442,1.79,1.122,2.352c-2.104,0.592-3.657,2.51-3.657,4.793c0-2.75-2.24-5-5-5
			c-2.74,0-4.97,2.21-5,4.93c-0.04-2.72-2.271-4.93-5-4.93c-2.76,0-5,2.25-5,5c0-2.75-2.24-5-5-5c-2.74,0-4.97,2.21-5,4.93
			c-0.036-2.45-1.854-4.471-4.209-4.851c0.012-0.103,0.031-0.202,0.031-0.308c0-1.598-1.295-2.893-2.893-2.893
			s-2.893,1.295-2.893,2.893c0,0.88,0.401,1.659,1.021,2.189c-0.653,0.846-1.059,1.892-1.059,3.039c0-2.75-2.24-5-5-5
			c-2.74,0-4.97,2.21-5,4.93c-0.04-2.72-2.271-4.93-5-4.93c-2.76,0-5,2.25-5,5c0-1.904-1.087-3.549-2.664-4.393
			c0.388-0.209,0.661-0.606,0.661-1.078c0-0.685-0.555-1.24-1.239-1.24c-0.686,0-1.24,0.555-1.24,1.24
			c0,0.195,0.054,0.373,0.134,0.537c-0.215-0.028-0.429-0.066-0.651-0.066c-2.74,0-4.97,2.21-5,4.93c-0.04-2.72-2.271-4.93-5-4.93
			c-2.76,0-5,2.25-5,5c0-1.141-0.4-2.183-1.049-3.026c0.01-0.127,0.038-0.249,0.038-0.378c0-2.738-2.22-4.958-4.958-4.958
			c-2.739,0-4.959,2.22-4.959,4.958c0,0.206,0.036,0.403,0.061,0.603c-0.901-1.324-2.417-2.198-4.133-2.198c-2.76,0-5,2.25-5,5
			c0-2.75-2.24-5-5-5c-2.74,0-4.97,2.21-5,4.93c-0.026-1.815-1.039-3.385-2.514-4.241c-0.267-1.558-1.615-2.747-3.249-2.747
			c-1.825,0-3.306,1.48-3.306,3.306c0,0.26,0.037,0.51,0.094,0.753c-0.635,0.839-1.025,1.871-1.025,2.999c0-2.75-2.24-5-5-5
			c-2.73,0-4.95,2.19-5,4.9c-0.05-2.71-2.28-4.9-5-4.9c-2.76,0-5,2.25-5,5c0-1.591-0.764-2.998-1.93-3.915
			c0.197,0.083,0.413,0.129,0.64,0.129c0.913,0,1.653-0.74,1.653-1.653s-0.74-1.653-1.653-1.653c-0.912,0-1.652,0.74-1.652,1.653
			c0,0.447,0.18,0.852,0.469,1.149c-0.744-0.44-1.601-0.71-2.526-0.71c-2.73,0-4.95,2.19-5,4.9c-0.05-2.71-2.28-4.9-5-4.9
			c-2.76,0-5,2.25-5,5c0-2.75-2.24-5-5-5c-2.76,0-5,2.25-5,5c0,0.001,0,0.002,0,0.003h-0.001c0-0.001,0-0.002,0-0.003
			c0-2.75-2.25-5-5-5c-2.76,0-5,2.25-5,5c0,0.001,0,0.002,0,0.003h-0.001c0-0.001,0-0.002,0-0.003c0-1.141-0.401-2.183-1.049-3.026
			c0.012-0.126,0.038-0.249,0.038-0.378c0-2.282-1.851-4.132-4.132-4.132c-2.283,0-4.133,1.85-4.133,4.132
			c0,0.247,0.031,0.486,0.073,0.721c-0.485,0.756-0.783,1.644-0.797,2.604c-0.05-2.72-2.27-4.92-5-4.92
			c-2.203,0-4.052,1.442-4.719,3.418c-0.173,0.06-0.336,0.134-0.493,0.224c-0.597-2.091-2.504-3.642-4.789-3.642
			c-2.73,0-4.96,2.2-5,4.92c-0.05-2.72-2.27-4.92-5-4.92c-2.76,0-5,2.25-5,5c0,0.001,0,0.002,0,0.003h-0.001
			c0-0.001,0-0.002,0-0.003c0-2.75-2.24-5-5-5c-2.73,0-4.96,2.2-5,4.92c-0.035-1.914-1.156-3.552-2.762-4.366
			c0.316-0.547,0.511-1.174,0.511-1.851c0-2.054-1.665-3.719-3.719-3.719s-3.719,1.665-3.719,3.719c0,1.08,0.468,2.044,1.204,2.724
			c-0.932,0.91-1.515,2.174-1.515,3.573c0,0.001,0,0.002,0,0.003h-0.001c0-0.001,0-0.002,0-0.003c0-2.75-2.24-5-5-5
			c-0.692,0-1.351,0.144-1.952,0.399c-0.448-1.295-1.664-2.231-3.112-2.231c-1.433,0-2.641,0.917-3.1,2.191
			c-0.569-0.227-1.187-0.359-1.837-0.359c-2.76,0-5,2.25-5,5c0,0.001,0,0.002,0,0.003h-0.001c0-0.001,0-0.002,0-0.003
			c0-2.75-2.24-5-5-5c-2.73,0-4.96,2.2-5,4.92c-0.05-2.72-2.27-4.92-5-4.92c-2.76,0-5,2.25-5,5c0,0.001,0,0.002,0,0.003h-0.001
			c0-0.001,0-0.002,0-0.003c0-2.75-2.24-5-5-5c-2.73,0-4.96,2.2-5,4.92c-0.029-1.577-0.801-2.963-1.966-3.863
			c0.238-0.521,0.378-1.096,0.378-1.707c0-2.282-1.85-4.132-4.133-4.132c-2.281,0-4.132,1.85-4.132,4.132
			c0,0.984,0.358,1.875,0.933,2.585c-0.666,0.85-1.08,1.906-1.08,3.064c0,0.001,0,0.002,0,0.003h-0.001c0-0.001,0-0.002,0-0.003
			c0-2.75-2.24-5-5-5c-2.73,0-4.96,2.2-5,4.92c-0.033-1.789-1.015-3.338-2.453-4.199c0.015-0.121,0.037-0.24,0.037-0.365
			c0-1.598-1.295-2.893-2.893-2.893s-2.893,1.295-2.893,2.893c0,0.26,0.045,0.507,0.109,0.746c-1.154,0.918-1.908,2.317-1.908,3.898
			c0,0.001,0,0.002,0,0.003h-0.001c0-0.001,0-0.002,0-0.003c0-2.75-2.24-5-5-5c-2.73,0-4.96,2.2-5,4.92c-0.04-2.72-2.27-4.92-5-4.92
			c-0.836,0-1.612,0.226-2.305,0.59c-0.139-1.698-1.545-3.038-3.279-3.038c-1.585,0-2.906,1.117-3.228,2.606
			c-0.383-0.094-0.776-0.158-1.188-0.158c-2.73,0-4.96,2.2-5,4.92c-0.04-2.72-2.27-4.92-5-4.92c-2.76,0-5,2.25-5,5
			c0,0.001,0,0.002,0,0.003h-0.001c0-0.001,0-0.002,0-0.003c0-0.568-0.116-1.106-0.292-1.616c0.472-0.452,0.769-1.084,0.769-1.788
			c0-1.369-1.11-2.479-2.479-2.479c-0.808,0-1.519,0.393-1.972,0.991c-0.332-0.069-0.674-0.107-1.025-0.107c-2.73,0-4.96,2.2-5,4.92
			c-0.04-2.72-2.27-4.92-5-4.92c-2.76,0-5,2.25-5,5c0,0.001,0,0.002,0,0.003h-0.001c0-0.001,0-0.002,0-0.003c0-2.75-2.24-5-5-5
			c-2.73,0-4.96,2.2-5,4.92c-0.04-2.72-2.27-4.92-5-4.92c-2.76,0-5,2.25-5,5c0,0.001,0,0.002,0,0.003h-0.001
			c0-0.001,0-0.002,0-0.003c0-2.75-2.24-5-5-5c-2.73,0-4.96,2.2-5,4.92c-0.04-2.72-2.27-4.92-5-4.92
			c-0.144,0-0.279,0.031-0.42,0.042c-0.23-0.059-0.467-0.1-0.715-0.1c-1.246,0-2.298,0.792-2.706,1.896
			c-0.713,0.865-1.16,1.958-1.16,3.161c0,0.001,0,0.002,0,0.003h-0.001c0-0.001,0-0.002,0-0.003c0-2.75-2.24-5-5-5
			c-2.113,0-3.913,1.324-4.644,3.181c-0.279-0.289-0.63-0.502-1.022-0.628c-0.86-1.516-2.471-2.553-4.334-2.553c-2.76,0-5,2.25-5,5
			c0,0.001,0,0.002,0,0.003h-0.001c0-0.001,0-0.002,0-0.003c0-2.75-2.24-5-5-5c-2.73,0-4.96,2.2-5,4.92c-0.04-2.72-2.27-4.92-5-4.92
			c-2.76,0-5,2.25-5,5c0,0.001,0,0.002,0,0.003h-0.001c0-0.001,0-0.002,0-0.003c0-2.584-1.985-4.701-4.513-4.951
			c-0.155-1.452-1.369-2.586-2.862-2.586c-1.598,0-2.893,1.295-2.893,2.893c0,0.854,0.377,1.613,0.965,2.143
			c-0.432,0.739-0.697,1.587-0.697,2.501c0,0.001,0,0.002,0,0.003h-0.001c0-0.001,0-0.002,0-0.003c0-2.75-2.24-5-5-5
			c-2.76,0-5,2.25-5,5c0,0.001,0,0.002,0,0.003h-0.001c0-0.001,0-0.002,0-0.003c0-2.75-2.24-5-5-5c-2.76,0-5,2.25-5,5
			c0,0.001,0,0.002,0,0.003h-0.001c0-0.001,0-0.002,0-0.003c0-0.953-0.283-1.837-0.75-2.598c0.559-0.527,0.912-1.27,0.912-2.099
			c0-1.598-1.295-2.893-2.893-2.893c-1.515,0-2.743,1.167-2.868,2.649c-2.475,0.301-4.401,2.394-4.401,4.939
			c0,0.001,0,0.002,0,0.003h-0.001c0-0.001,0-0.002,0-0.003c0-2.75-2.24-5-5-5c-2.73,0-4.96,2.2-5,4.92c-0.04-2.72-2.27-4.92-5-4.92
			c-0.01,0-0.018,0.003-0.028,0.003c-0.324-0.992-1.247-1.713-2.346-1.713c-1.369,0-2.479,1.11-2.479,2.479
			c0,0.622,0.237,1.183,0.615,1.618c-0.459,0.742-0.745,1.602-0.762,2.532c-0.04-2.72-2.27-4.92-5-4.92c-2.76,0-5,2.25-5,5
			c0,0.001,0,0.002,0,0.003h-0.001c0-0.001,0-0.002,0-0.003c0-1.456-0.639-2.759-1.639-3.675c1.449-0.76,2.448-2.261,2.448-4.01
			c0-2.51-2.035-4.545-4.546-4.545c-2.51,0-4.545,2.035-4.545,4.545c0,1.212,0.482,2.308,1.256,3.123
			c-1.75,0.781-2.975,2.532-2.975,4.562c0,0.001,0,0.002,0,0.003h-0.001c0-0.001,0-0.002,0-0.003c0-2.75-2.24-5-5-5
			c-2.76,0-5,2.25-5,5c0,0.001,0,0.002,0,0.003h-0.001c0-0.001,0-0.002,0-0.003c0-2.75-2.24-5-5-5c-2.76,0-5,2.25-5,5
			c0,0.001,0,0.002,0,0.003h-0.001c0-0.001,0-0.002,0-0.003c0-2.75-2.24-5-5-5c-2.75,0-5,2.25-5,5c0,0.001,0,0.002,0,0.003h-0.001
			c0-0.001,0-0.002,0-0.003c0-2.75-2.24-5-5-5c-0.18,0-0.35,0.034-0.525,0.053c-0.672-1.67-2.301-2.853-4.212-2.853
			c-1.932,0-3.572,1.211-4.23,2.911c-0.334-0.07-0.679-0.111-1.033-0.111c-2.75,0-5,2.25-5,5c0,0.001,0,0.002,0,0.003h-0.001
			c0-0.001,0-0.002,0-0.003c0-2.75-2.24-5-5-5c-2.73,0-4.96,2.21-5,4.93c-0.03-2.72-2.26-4.93-5-4.93c-2.75,0-5,2.25-5,5
			c0,0.001,0,0.002,0,0.003h-0.001c0-0.001,0-0.002,0-0.003c0-0.626-0.129-1.22-0.341-1.773c0.251-0.342,0.404-0.761,0.404-1.218
			c0-1.141-0.925-2.066-2.066-2.066c-0.455,0-0.872,0.152-1.213,0.401c-0.556-0.214-1.153-0.344-1.784-0.344
			c-2.73,0-4.95,2.2-5,4.92c-0.04-2.714-2.262-4.91-4.985-4.918c0.057-0.209,0.098-0.424,0.098-0.651
			c0-1.369-1.11-2.479-2.479-2.479s-2.479,1.11-2.479,2.479c0,0.933,0.521,1.735,1.282,2.159c-0.885,0.903-1.436,2.135-1.436,3.491
			c0,0.001,0,0.002,0,0.003h-0.001c0-0.001,0-0.002,0-0.003c0-2.75-2.24-5-5-5c-2.75,0-5,2.25-5,5c0,0.001,0,0.002,0,0.003h-0.001
			c0-0.001,0-0.002,0-0.003c0-2.75-2.24-5-5-5c-2.75,0-5,2.25-5,5c0,0.001,0,0.002,0,0.003h-0.001c0-0.001,0-0.002,0-0.003
			c0-1.359-0.55-2.594-1.438-3.498c0.111-0.222,0.179-0.468,0.179-0.733c0-0.913-0.74-1.653-1.653-1.653
			c-0.658,0-1.222,0.388-1.488,0.945c-0.199-0.024-0.395-0.061-0.601-0.061c-2.73,0-4.95,2.2-5,4.92
			c-0.017-1.122-0.42-2.143-1.062-2.97c0.006-0.098,0.029-0.192,0.029-0.292c0-2.51-2.035-4.545-4.545-4.545
			s-4.545,2.035-4.545,4.545c0,0.649,0.141,1.264,0.387,1.823c-0.156,0.482-0.263,0.986-0.263,1.519c0,0.001,0,0.002,0,0.003h-0.001
			c0-0.001,0-0.002,0-0.003c0-2.75-2.24-5-5-5c-2.73,0-4.95,2.2-5,4.92c-0.04-2.72-2.27-4.92-5-4.92
			c-1.884,0-3.514,1.068-4.366,2.618c-0.28-1.062-1.238-1.849-2.389-1.849c-0.176,0-0.347,0.02-0.513,0.054
			c-0.786-0.517-1.723-0.823-2.733-0.823c-2.73,0-4.96,2.21-5,4.93c-0.03-2.72-2.26-4.93-5-4.93c-2.75,0-5,2.25-5,5
			c0,0.001,0,0.002,0,0.003h-0.001c0-0.001,0-0.002,0-0.003c0-2.75-2.24-5-5-5c-2.201,0-4.048,1.439-4.717,3.418
			c-0.028,0.065-0.046,0.135-0.066,0.204c-0.121,0.416-0.208,0.846-0.217,1.298c-0.04-2.72-2.27-4.92-5-4.92c-2.75,0-5,2.25-5,5
			c0,0.001,0,0.002,0,0.003h-0.001c0-0.001,0-0.002,0-0.003c0-0.883-0.25-1.702-0.655-2.423c0.029-0.187,0.057-0.374,0.057-0.568
			c0-2.054-1.665-3.719-3.719-3.719c-1.667,0-3.062,1.104-3.534,2.616c-1.272,0.891-2.119,2.352-2.149,4.014
			c-0.04-2.72-2.27-4.92-5-4.92c-0.025,0-0.048,0.007-0.072,0.007c-0.192-0.121-0.406-0.209-0.649-0.209
			c-0.412,0-0.759,0.214-0.984,0.523c-1.913,0.703-3.294,2.53-3.294,4.679c0,0.001,0,0.002,0,0.003h-0.001c0-0.001,0-0.002,0-0.003
			c0-2.185-1.423-4.034-3.389-4.709c0.785-0.518,1.304-1.404,1.304-2.414c0-1.598-1.295-2.893-2.893-2.893s-2.893,1.295-2.893,2.893
			c0,1.003,0.511,1.886,1.286,2.404c-1.953,0.659-3.376,2.474-3.416,4.639c-0.04-2.72-2.27-4.92-5-4.92
			c-0.896,0-1.726,0.258-2.455,0.674c-0.297-0.125-0.623-0.194-0.965-0.194c-1.14,0-2.09,0.767-2.391,1.809
			c-0.869-1.338-2.357-2.231-4.059-2.276c0.743-0.428,1.249-1.221,1.249-2.14c0-1.37-1.11-2.479-2.479-2.479
			c-1.37,0-2.479,1.11-2.479,2.479c0,1.188,0.837,2.18,1.954,2.421c-1.931,0.67-3.334,2.477-3.374,4.626
			c-0.04-2.72-2.27-4.92-5-4.92c-2.75,0-5,2.25-5,5c0,0.001,0,0.002,0,0.003h-0.001c0-0.001,0-0.002,0-0.003c0-2.75-2.24-5-5-5
			c-2.73,0-4.95,2.2-5,4.92c-0.007-0.467-0.099-0.909-0.227-1.337c0.123-0.391,0.208-0.799,0.208-1.23
			c0-2.282-1.85-4.132-4.132-4.132c-1.836,0-3.375,1.206-3.913,2.863c-1.168,0.917-1.936,2.325-1.936,3.917c0,0.001,0,0.002,0,0.003
			h-0.001c0-0.001,0-0.002,0-0.003c0-2.75-2.24-5-5-5c-2.73,0-4.95,2.2-5,4.92c-0.037-2.475-1.893-4.5-4.283-4.848
			c-0.53-0.655-1.332-1.083-2.24-1.083c-1.598,0-2.893,1.295-2.893,2.893c0,0.232,0.035,0.455,0.086,0.67
			c-0.414,0.728-0.67,1.556-0.67,2.448c0,0.001,0,0.002,0,0.003h-0.001c0-0.001,0-0.002,0-0.003c0-2.75-2.24-5-5-5
			c-2.73,0-4.95,2.2-5,4.92c-0.029-1.985-1.232-3.684-2.938-4.461c0.314-0.545,0.507-1.168,0.507-1.843
			c0-2.054-1.665-3.719-3.719-3.719c-2.054,0-3.719,1.665-3.719,3.719c0,1.148,0.531,2.162,1.349,2.844
			c-0.912,0.907-1.479,2.16-1.479,3.54c0,0.001,0,0.002,0,0.003h-0.001c0-0.001,0-0.002,0-0.003c0-2.75-2.24-5-5-5
			c-2.75,0-5,2.25-5,5c0,0.001,0,0.002,0,0.003h-0.001c0-0.001,0-0.002,0-0.003c0-1.872-1.05-3.492-2.583-4.349
			c0.815-0.276,1.406-1.04,1.406-1.948c0-1.142-0.925-2.066-2.066-2.066c-1.142,0-2.066,0.925-2.066,2.066
			c0,0.502,0.187,0.957,0.485,1.314c-0.06-0.002-0.116-0.018-0.176-0.018c-2.75,0-5,2.25-5,5c0,0.001,0,0.002,0,0.003h-0.001
			c0-0.001,0-0.002,0-0.003c0-2.75-2.24-5-5-5c-2.73,0-4.95,2.2-5,4.92c-0.04-2.72-2.27-4.92-5-4.92c-2.75,0-5,2.25-5,5
			c0,0.001,0,0.002,0,0.003h-0.001c0-0.001,0-0.002,0-0.003c0-0.929-0.272-1.791-0.717-2.538c0.004-0.053,0.016-0.104,0.016-0.158
			c0-1.142-0.925-2.066-2.066-2.066c-0.187,0-0.364,0.033-0.537,0.079c-0.532-0.193-1.098-0.316-1.696-0.316
			c-2.73,0-4.95,2.2-5,4.92c-0.04-2.72-2.27-4.92-5-4.92c-0.123,0-0.238,0.027-0.358,0.036c-0.276-0.137-0.583-0.221-0.911-0.221
			c-0.902,0-1.66,0.581-1.942,1.386c-1.063,0.902-1.761,2.224-1.788,3.719c-0.04-2.72-2.27-4.92-5-4.92
			c-0.916,0-1.765,0.267-2.505,0.702c0.078-0.241,0.131-0.493,0.131-0.759c0-1.369-1.11-2.479-2.479-2.479
			c-1.37,0-2.479,1.11-2.479,2.479c0,0.345,0.071,0.672,0.198,0.97c-0.811-0.571-1.792-0.913-2.855-0.913c-2.76,0-5.01,2.25-5.01,5
			c0,0.001,0,0.002,0,0.003h-0.001c0-0.001,0-0.002,0-0.003c0-2.358-1.652-4.338-3.862-4.857c0.315-0.546,0.51-1.171,0.51-1.848
			c0-2.054-1.665-3.719-3.719-3.719c-2.054,0-3.719,1.665-3.719,3.719c0,1.48,0.871,2.747,2.123,3.346
			c-0.813,0.891-1.322,2.064-1.322,3.359c0,0.001,0,0.002,0,0.003h-0.011c0-0.001,0-0.002,0-0.003c0-2.75-2.24-5-5-5
			c-1.193,0-2.278,0.441-3.14,1.146c-0.566-2.116-2.478-3.682-4.771-3.682c-2.141,0-3.949,1.365-4.643,3.266
			c-1.452,0.877-2.436,2.457-2.436,4.271c0,0.001,0,0.002,0,0.003h-0.011c0-0.001,0-0.002,0-0.003c0-2.75-2.24-5-5-5
			c-2.73,0-4.95,2.2-5,4.92c-0.023-1.571-0.791-2.953-1.95-3.854c0.018-0.097,0.03-0.195,0.03-0.297c0-0.913-0.74-1.653-1.653-1.653
			c-0.634,0-1.179,0.362-1.456,0.887c-2.737,0.016-4.961,2.257-4.961,4.997c0,0.001,0,0.002,0,0.003h-0.011c0-0.001,0-0.002,0-0.003
			c0-2.75-2.24-5-4.99-5c-2.73,0-4.96,2.2-5.01,4.92c-0.038-2.604-2.09-4.709-4.66-4.886c0.15-0.321,0.24-0.676,0.24-1.054
			c0-1.381-1.119-2.5-2.5-2.5c-0.229,0-0.445,0.041-0.655,0.098c0.015-0.117,0.036-0.233,0.036-0.354
			c0-1.598-1.295-2.893-2.893-2.893s-2.893,1.295-2.893,2.893s1.295,2.893,2.893,2.893c0.36,0,0.7-0.074,1.018-0.194
			c0,0.02-0.006,0.038-0.006,0.058c0,0.935,0.519,1.74,1.279,2.169c-1.119,0.919-1.85,2.296-1.85,3.851c0,0.001,0,0.002,0,0.003
			h-0.011c0-0.001,0-0.002,0-0.003c0-2.75-2.24-5-4.99-5c-2.73,0-4.96,2.2-5.01,4.92c-0.04-2.72-2.27-4.92-5-4.92
			c-2.75,0-4.99,2.25-4.99,5c0,0.001,0,0.002,0,0.003h-0.011c0-0.001,0-0.002,0-0.003c0-2.149-1.376-3.977-3.288-4.68
			c-0.539-0.257-1.134-0.413-1.771-0.413c-0.881,0-1.694,0.281-2.365,0.751c-1.528,0.859-2.577,2.475-2.577,4.341
			c0,0.001,0,0.002,0,0.003h-0.001c0-0.001,0-0.002,0-0.003c0-2.75-2.24-5-5-5c-0.806,0-1.556,0.211-2.231,0.553
			c-0.113-1.723-1.532-3.09-3.284-3.09c-1.622,0-2.964,1.169-3.246,2.709c-0.396-0.102-0.803-0.172-1.229-0.172
			c-2.73,0-4.96,2.2-5.01,4.92c-0.04-2.72-2.27-4.92-5-4.92c-2.75,0-4.99,2.25-4.99,5c0,0.001,0,0.002,0,0.003h-0.011
			c0-0.001,0-0.002,0-0.003c0-2.75-2.24-5-4.99-5c-2.73,0-4.96,2.2-5.01,4.92c-0.04-2.72-2.27-4.92-5-4.92c-2.75,0-4.99,2.25-4.99,5
			c0,0.001,0,0.002,0,0.003h-0.011c0-0.001,0-0.002,0-0.003c0-2.75-2.24-5-4.99-5c-2.73,0-4.96,2.2-5,4.91
			c-0.05-2.71-2.28-4.91-5.01-4.91c-2.75,0-4.99,2.25-4.99,5c0,0.001,0,0.002,0,0.003h-0.011c0-0.001,0-0.002,0-0.003
			c0-1.242-0.474-2.368-1.228-3.245c0.103,0.01,0.203,0.031,0.308,0.031c1.826,0,3.306-1.48,3.306-3.306
			c0-1.826-1.48-3.306-3.306-3.306c-1.826,0-3.306,1.48-3.306,3.306c0,0.624,0.183,1.2,0.483,1.698
			c-0.401-0.105-0.814-0.178-1.248-0.178c-2.73,0-4.96,2.2-5,4.91c-0.05-2.71-2.28-4.91-5.01-4.91c-2.13,0-4.03,1.38-4.72,3.37
			c-0.341-0.528-0.778-0.982-1.28-1.344v110.833c0.923,1.001,2.241,1.621,3.68,1.621c2.75,0,5-2.24,5-5c0,2.76,2.24,5,5,5
			c2.75,0,5-2.24,5-5c0,2.76,2.24,5,5,5c2.75,0,5-2.24,5-5c0,2.76,2.24,5,5,5c2.75,0,5-2.24,5-5c0,2.76,2.24,5,5,5
			c2.75,0,5-2.24,5-5c0,2.76,2.24,5,5,5c2.75,0,5-2.24,5-5c0,2.76,2.24,5,5,5c2.73,0,4.95-2.2,5-4.92c0.04,2.72,2.27,4.92,5,4.92
			c2.75,0,5-2.24,5-5c0,2.76,2.24,5,5,5c2.73,0,4.96-2.21,5-4.93c0.03,2.72,2.26,4.93,5,4.93c2.75,0,5-2.24,5-5c0,2.76,2.24,5,5,5
			c2.73,0,4.95-2.2,5-4.92c0.04,2.72,2.27,4.92,5,4.92c2.75,0,5-2.24,5-5c0,2.76,2.24,5,5,5c2.73,0,4.95-2.2,5-4.92
			c0.04,2.72,2.27,4.92,5,4.92c2.75,0,5-2.24,5-5c0,2.76,2.24,5,5,5c2.73,0,4.95-2.2,5-4.92c0.04,2.72,2.27,4.92,5,4.92
			c2.75,0,5-2.24,5-5c0,2.76,2.24,5,5,5c2.73,0,4.95-2.2,5-4.92c0.04,2.72,2.27,4.92,5,4.92c2.75,0,5-2.24,5-5c0,2.76,2.24,5,5,5
			c2.73,0,4.95-2.2,5-4.92c0.04,2.72,2.27,4.92,5,4.92c2.75,0,5-2.24,5-5c0,2.76,2.24,5,5,5c2.73,0,4.95-2.2,5-4.92
			c0.04,2.72,2.27,4.92,5,4.92c2.75,0,5-2.24,5-5c0,2.76,2.24,5,5,5c2.73,0,4.95-2.2,5-4.92c0.04,2.72,2.27,4.92,5,4.92
			c2.75,0,5-2.24,5-5c0,2.76,2.24,5,5,5c2.75,0,5-2.24,5-5c0,2.76,2.24,5,5,5c2.75,0,5-2.24,5-5c0,2.76,2.24,5,5,5
			c2.75,0,5-2.24,5-5c0,2.025,1.211,3.76,2.943,4.546c0.094,2.199,1.893,3.957,4.115,3.957c2.282,0,4.132-1.85,4.132-4.132
			c0-0.543-0.111-1.06-0.302-1.535c0.902,1.305,2.406,2.164,4.111,2.164c2.75,0,5-2.24,5-5c0,2.76,2.24,5,5,5
			c2.73,0,4.95-2.2,5-4.92c0.04,2.72,2.27,4.92,5,4.92c2.75,0,5-2.24,5-5c0,2.76,2.24,5,5,5c2.73,0,4.95-2.2,5-4.92
			c0.04,2.72,2.27,4.92,5,4.92c2.75,0,5-2.24,5-5c0,2.76,2.24,5,5,5c2.73,0,4.95-2.2,5-4.92c0.04,2.72,2.27,4.92,5,4.92
			c2.75,0,5-2.24,5-5c0,2.76,2.24,5,5,5c2.73,0,4.95-2.2,5-4.92c0.04,2.72,2.27,4.92,5,4.92c2.75,0,5-2.24,5-5c0,2.76,2.24,5,5,5
			c2.73,0,4.95-2.2,5-4.92c0.04,2.72,2.27,4.92,5,4.92c2.75,0,5-2.24,5-5c0,2.76,2.24,5,5,5c2.73,0,4.95-2.2,5-4.92
			c0.04,2.72,2.27,4.92,5,4.92c2.75,0,5-2.24,5-5c0,2.76,2.24,5,5,5c2.73,0,4.95-2.2,5-4.92c0.04,2.72,2.27,4.92,5,4.92
			c2.75,0,5-2.24,5-5c0,2.76,2.24,5,5,5c2.73,0,4.96-2.21,5-4.93c0.03,2.72,2.26,4.93,5,4.93c2.75,0,5-2.24,5-5c0,2.76,2.24,5,5,5
			c2.73,0,4.95-2.2,5-4.92c0.04,2.72,2.27,4.92,5,4.92c2.75,0,5-2.24,5-5c0,2.76,2.24,5,5,5c2.73,0,4.95-2.2,5-4.92
			c0.04,2.72,2.27,4.92,5,4.92c2.75,0,5-2.24,5-5c0,2.76,2.24,5,5,5c2.73,0,4.95-2.2,5-4.92c0.04,2.72,2.27,4.92,5,4.92
			c2.75,0,5-2.24,5-5c0,2.228,1.47,4.095,3.485,4.74c-0.17,0.3-0.275,0.642-0.275,1.012c0,1.141,0.925,2.066,2.066,2.066
			c1.142,0,2.066-0.925,2.066-2.066c0-0.434-0.135-0.835-0.363-1.167c1.749-0.759,2.983-2.486,3.02-4.505
			c0.04,2.72,2.27,4.92,5,4.92c2.75,0,5-2.24,5-5c0,2.76,2.24,5,5,5c2.73,0,4.95-2.2,5-4.92c0.04,2.72,2.27,4.92,5,4.92
			c2.75,0,5-2.24,5-5c0,2.76,2.24,5,5,5c2.73,0,4.95-2.2,5-4.92c0.04,2.72,2.27,4.92,5,4.92c2.75,0,5-2.24,5-5c0,2.76,2.24,5,5,5
			c2.73,0,4.95-2.2,5-4.92c0.04,2.72,2.27,4.92,5,4.92c2.75,0,5-2.24,5-5c0,2.76,2.24,5,5,5c2.75,0,5-2.24,5-5c0,2.76,2.24,5,5,5
			c2.75,0,5-2.24,5-5c0,2.76,2.24,5,5,5c2.75,0,5-2.24,5-5c0,2.76,2.24,5,5,5c2.75,0,5-2.24,5-5c0,2.76,2.24,5,5,5
			c2.75,0,5-2.24,5-5c0,2.76,2.24,5,5,5c2.73,0,4.95-2.2,5-4.92c0.04,2.72,2.27,4.92,5,4.92c2.75,0,5-2.24,5-5c0,2.76,2.24,5,5,5
			c2.73,0,4.95-2.2,5-4.92c0.04,2.72,2.27,4.92,5,4.92c2.75,0,5-2.24,5-5c0,2.76,2.24,5,5,5c0.479,0,0.935-0.089,1.374-0.216
			c0.509,0.826,1.415,1.382,2.457,1.382c1.447,0,2.635-1.065,2.848-2.453c0.886,0.792,2.043,1.288,3.322,1.288c2.75,0,5-2.24,5-5
			c0,2.76,2.24,5,5,5c2.75,0,5-2.24,5-5c0,2.76,2.24,5,5,5c2.75,0,5-2.24,5-5c0,2.76,2.24,5,5,5c2.75,0,5-2.24,5-5
			c0,2.76,2.24,5,5,5c2.75,0,5-2.24,5-5c0,2.76,2.24,5,5,5c2.73,0,4.95-2.2,5-4.92c0.04,2.72,2.27,4.92,5,4.92c2.75,0,5-2.24,5-5
			c0,2.76,2.24,5,5,5c2.73,0,4.95-2.2,5-4.92c0.04,2.72,2.27,4.92,5,4.92c2.75,0,5-2.24,5-5c0,2.76,2.24,5,5,5
			c2.73,0,4.96-2.21,5-4.93c0.03,2.72,2.26,4.93,5,4.93c2.75,0,5-2.24,5-5c0,2.76,2.24,5,5,5c2.73,0,4.95-2.2,5-4.92
			c0.04,2.72,2.27,4.92,5,4.92c2.75,0,5-2.24,5-5c0,2.76,2.24,5,5,5c2.73,0,4.95-2.2,5-4.92c0.04,2.72,2.27,4.92,5,4.92
			c2.75,0,5-2.24,5-5c0,2.76,2.24,5,5,5c2.73,0,4.95-2.2,5-4.92c0.04,2.72,2.27,4.92,5,4.92c2.75,0,5-2.24,5-5c0,2.76,2.24,5,5,5
			c2.73,0,4.95-2.2,5-4.92c0.04,2.72,2.27,4.92,5,4.92c2.75,0,5-2.24,5-5c0,2.76,2.24,5,5,5c2.73,0,4.95-2.2,5-4.92
			c0.04,2.72,2.27,4.92,5,4.92c2.75,0,5-2.24,5-5c0,2.76,2.24,5,5,5c2.73,0,4.95-2.2,5-4.92c0.04,2.72,2.27,4.92,5,4.92
			c2.75,0,5-2.24,5-5c0,2.76,2.24,5,5,5c2.73,0,4.95-2.2,5-4.92c0.04,2.72,2.27,4.92,5,4.92c2.75,0,5-2.24,5-5c0,2.76,2.24,5,5,5
			c2.75,0,5-2.24,5-5c0,2.76,2.24,5,5,5c2.75,0,5-2.24,5-5c0,2.76,2.24,5,5,5c2.73,0,4.96-2.21,5-4.93c0.03,2.72,2.26,4.93,5,4.93
			c2.75,0,5-2.24,5-5c0,2.76,2.24,5,5,5c2.73,0,4.96-2.21,5-4.93c0.03,2.72,2.26,4.93,5,4.93c2.75,0,5-2.24,5-5c0,2.76,2.24,5,5,5
			c2.72,0,4.94-2.19,5-4.9c0.05,2.71,2.271,4.9,5,4.9c2.75,0,5-2.24,5-5c0,2.76,2.24,5,5,5c2.72,0,4.94-2.19,5-4.9
			c0.05,2.71,2.271,4.9,5,4.9c2.75,0,5-2.24,5-5c0,2.76,2.24,5,4.99,5c2.76,0,5-2.24,5-5c0,2.76,2.25,5,5.01,5c2.75,0,5-2.24,5-5
			c0,2.76,2.24,5,4.99,5c2.729,0,4.95-2.19,5.01-4.9c0.05,2.71,2.271,4.9,5,4.9c2.75,0,4.99-2.24,4.99-5h0.01c0,2.76,2.24,5,4.99,5
			c2.729,0,4.95-2.19,5.01-4.9c0.016,0.861,0.27,1.658,0.671,2.36c-0.171,0.353-0.274,0.743-0.274,1.161c0,1.48,1.2,2.68,2.68,2.68
			c0.989,0,1.845-0.542,2.309-1.34c2.568-0.201,4.605-2.333,4.605-4.96h0.01c0,2.76,2.24,5,4.99,5c2.74,0,4.97-2.21,5-4.93
			c0.04,2.72,2.27,4.93,5.01,4.93c2.75,0,4.99-2.24,4.99-5h0.01c0,2.76,2.24,5,4.99,5c2.74,0,4.97-2.21,5-4.93
			c0.04,2.72,2.27,4.93,5.01,4.93c2.75,0,4.99-2.24,4.99-5h0.01c0,2.76,2.24,5,4.99,5c2.74,0,4.97-2.21,5-4.93
			c0.04,2.72,2.27,4.93,5.01,4.93c2.73,0,4.96-2.21,4.99-4.93c0.04,2.72,2.27,4.93,5,4.93c2.76,0,5-2.24,5-5c0,2.76,2.25,5,5,5
			c2.729,0,4.95-2.19,5-4.9c0.06,2.71,2.28,4.9,5,4.9c2.76,0,5-2.24,5-5c0,2.76,2.25,5,5,5c2.729,0,4.95-2.19,5-4.9
			c0.06,2.71,2.28,4.9,5,4.9c2.76,0,5-2.24,5-5c0,2.76,2.25,5,5,5c2.76,0,5-2.24,5-5h0.01c0,2.76,2.24,5,4.99,5c2.76,0,5-2.24,5-5
			c0,2.76,2.25,5,5,5c2.76,0,5-2.24,5-5h0.01c0,2.76,2.24,5,4.99,5c2.76,0,5-2.24,5-5c0,2.76,2.25,5,5.01,5c2.75,0,4.99-2.24,4.99-5
			c0,2.76,2.25,5,5,5c2.729,0,4.95-2.19,5-4.9c0.06,2.71,2.28,4.9,5,4.9c2.76,0,5-2.24,5-5c0,2.76,2.25,5,5,5
			c2.729,0,4.95-2.19,5-4.9c0.06,2.71,2.28,4.9,5,4.9c2.74,0,4.97-2.21,5-4.93c0.04,2.72,2.27,4.93,5,4.93c2.76,0,5-2.24,5-5
			c0,2.76,2.25,5,5,5c2.74,0,4.97-2.21,5-4.93c0.04,2.72,2.27,4.93,5,4.93c2.76,0,5-2.24,5-5c0,2.76,2.25,5,5,5
			c2.74,0,4.97-2.21,5-4.93c0.04,2.72,2.27,4.93,5,4.93c2.76,0,5-2.24,5-5c0,2.76,2.25,5,5,5c2.74,0,4.97-2.21,5-4.93
			c0.04,2.72,2.27,4.93,5,4.93c2.76,0,5-2.24,5-5c0,2.76,2.25,5,5,5c2.729,0,4.95-2.19,5-4.9c0.06,2.71,2.28,4.9,5,4.9
			c2.76,0,5-2.24,5-5c0,2.76,2.25,5,5,5c2.729,0,4.95-2.19,5-4.9c0.06,2.71,2.28,4.9,5,4.9c2.76,0,5-2.24,5-5c0,2.76,2.25,5,5,5
			c2.729,0,4.95-2.19,5-4.9c0.06,2.71,2.28,4.9,5,4.9c2.76,0,5-2.24,5-5c0,2.76,2.24,5,5,5s5-2.24,5-5c0,2.76,2.25,5,5,5
			c2.76,0,5-2.24,5-5c0,2.76,2.24,5,5,5c2.729,0,4.95-2.19,5-4.9c0.06,2.71,2.28,4.9,5,4.9c2.76,0,5-2.24,5-5c0,2.76,2.24,5,5,5
			c2.74,0,4.97-2.21,5-4.93c0.04,2.72,2.27,4.93,5,4.93c2.76,0,5-2.24,5-5c0,2.416,1.718,4.434,3.997,4.898
			c-0.909,0.306-1.569,1.155-1.569,2.168c0,1.269,1.028,2.297,2.297,2.297s2.297-1.028,2.297-2.297c0-0.963-0.594-1.784-1.434-2.126
			c2.461-0.292,4.384-2.351,4.412-4.871c0.04,2.72,2.27,4.93,5,4.93c2.76,0,5-2.24,5-5c0,2.76,2.24,5,5,5c2.74,0,4.97-2.21,5-4.93
			c0.04,2.72,2.27,4.93,5,4.93c2.76,0,5-2.24,5-5c0,2.76,2.24,5,5,5c2.74,0,4.97-2.21,5-4.93c0.04,2.72,2.27,4.93,5,4.93
			c2.729,0,4.95-2.19,5-4.9c0.05,2.71,2.28,4.9,5,4.9c2.76,0,5-2.24,5-5c0,2.76,2.24,5,5,5c2.72,0,4.95-2.19,5-4.9
			c0.05,2.71,2.28,4.9,5,4.9c2.76,0,5-2.24,5-5c0,2.76,2.24,5,5,5s5-2.24,5-5c0,2.76,2.24,5,5,5s5-2.24,5-5c0,2.76,2.24,5,5,5
			s5-2.24,5-5c0,2.76,2.24,5,5,5s5-2.24,5-5c0,2.76,2.24,5,5,5s5-2.24,5-5c0,2.203,1.438,4.054,3.418,4.719
			c-0.058,0.263-0.092,0.535-0.092,0.816c0,2.114,1.714,3.829,3.829,3.829c2.114,0,3.829-1.714,3.829-3.829
			c0-1.294-0.646-2.433-1.629-3.126c0.398-0.717,0.645-1.531,0.645-2.409c0,2.76,2.24,5,5,5s5-2.24,5-5c0,2.76,2.24,5,5,5
			c2.729,0,4.95-2.19,5-4.9c0.05,2.71,2.28,4.9,5,4.9c1.042,0,2.01-0.321,2.811-0.867c-0.011,0.083-0.025,0.167-0.025,0.254
			c0,1.057,0.857,1.915,1.914,1.915c1.058,0,1.915-0.857,1.915-1.915c0-0.393-0.119-0.757-0.322-1.061
			c0.916,1.02,2.23,1.674,3.708,1.674c2.729,0,4.95-2.19,5-4.9c0.05,2.71,2.28,4.9,5,4.9c2.729,0,4.96-2.21,5-4.93
			c0.04,2.72,2.27,4.93,5,4.93c2.76,0,5-2.24,5-5c0,2.76,2.24,5,5,5c2.729,0,4.96-2.21,5-4.93c0.04,2.72,2.27,4.93,5,4.93
			c2.76,0,5-2.24,5-5c0,2.76,2.24,5,5,5c2.729,0,4.96-2.21,5-4.93c0.04,2.72,2.27,4.93,5,4.93c2.76,0,5-2.24,5-5c0,2.76,2.24,5,5,5
			c2.729,0,4.96-2.21,5-4.93c0.04,2.72,2.27,4.93,5,4.93c2.76,0,5-2.24,5-5c0,2.76,2.24,5,5,5c2.72,0,4.94-2.19,5-4.9
			c0.06,2.71,2.28,4.9,5,4.9c2.76,0,5-2.24,5-5c0,2.76,2.24,5,5,5c2.72,0,4.94-2.19,5-4.9c0.06,2.71,2.28,4.9,5,4.9
			c2.76,0,5-2.24,5-5c0,2.76,2.24,5,5,5c2.72,0,4.94-2.19,5-4.9c0.06,2.71,2.28,4.9,5,4.9c2.76,0,5-2.24,5-5c0,2.76,2.24,5,5,5
			c2.72,0,4.94-2.19,5-4.9c0.05,2.71,2.28,4.9,5,4.9c2.76,0,5-2.24,5-5c0,2.76,2.24,5,5,5c2.72,0,4.94-2.19,5-4.9
			c0.05,2.71,2.28,4.9,5,4.9c2.76,0,5-2.24,5-5c0,2.76,2.24,5,5,5c2.729,0,4.96-2.2,5-4.92c0.04,2.72,2.27,4.92,5,4.92
			c2.76,0,5-2.24,5-5c0,2.76,2.24,5,5,5c2.729,0,4.96-2.2,5-4.92c0.04,2.72,2.27,4.92,5,4.92c2.76,0,5-2.24,5-5c0,2.76,2.24,5,5,5
			c2.729,0,4.96-2.2,5-4.92c0.019,1.271,0.528,2.416,1.33,3.289V74.275C1909.375,73.048,1907.927,72.239,1906.288,72.239z
			 M81.288,77.243c0-0.001,0-0.002,0-0.003c0-0.331-0.036-0.653-0.098-0.967c0.068-0.009,0.14-0.008,0.208-0.021
			c-0.065,0.32-0.1,0.65-0.1,0.988c0,0.001,0,0.002,0,0.003H81.288z M201.288,77.243c0-0.001,0-0.002,0-0.003
			c0-1.032-0.316-1.994-0.856-2.793c0.307,0.136,0.645,0.215,1.002,0.215c0.226,0,0.439-0.04,0.647-0.096
			c-0.496,0.776-0.793,1.69-0.793,2.674C201.288,77.24,201.289,77.242,201.288,77.243L201.288,77.243z M278.773,183.024
			c0.114-0.418,0.195-0.85,0.195-1.304c0,0.695,0.144,1.356,0.4,1.958C279.194,183.437,278.993,183.221,278.773,183.024z
			 M351.288,77.243c0-0.001,0-0.002,0-0.003c0-0.036-0.01-0.07-0.011-0.105c0.007,0.005,0.013,0.011,0.02,0.016
			c0,0.03-0.009,0.059-0.009,0.089C351.288,77.24,351.289,77.242,351.288,77.243L351.288,77.243z M431.288,77.243
			c0,0,0-0.002,0-0.002v0C431.288,77.241,431.289,77.242,431.288,77.243L431.288,77.243z M688.968,181.799
			c0.003,0.202,0.042,0.393,0.068,0.588c-0.044-0.021-0.084-0.047-0.129-0.066C688.928,182.147,688.964,181.978,688.968,181.799z
			 M781.289,77.243L781.289,77.243c-0.001-0.001,0-0.002,0-0.003c0-0.303-0.038-0.597-0.09-0.886c0.06-0.009,0.123-0.008,0.182-0.02
			c-0.055,0.294-0.092,0.596-0.092,0.906C781.288,77.24,781.289,77.242,781.289,77.243z M871.288,77.159
			c-0.001-0.05-0.015-0.096-0.017-0.146c0.012,0,0.022-0.003,0.034-0.003C871.303,77.061,871.289,77.108,871.288,77.159z
			 M1031.334,76.761c-0.013,0.137-0.044,0.269-0.046,0.409c-0.003-0.185-0.04-0.36-0.062-0.54
			C1031.258,76.677,1031.3,76.715,1031.334,76.761z M1400.531,74.632c0.16,0.035,0.324,0.057,0.495,0.057
			c0.444,0,0.855-0.132,1.206-0.35c-0.589,0.82-0.944,1.818-0.944,2.9C1401.288,76.282,1401.002,75.395,1400.531,74.632z
			 M1661.131,76.056c0.127-0.046,0.248-0.101,0.366-0.165c-0.123,0.432-0.209,0.878-0.209,1.348
			C1661.288,76.83,1661.225,76.437,1661.131,76.056z M1668.657,184.191c-0.139,0-0.272,0.016-0.402,0.044
			c0.436-0.742,0.703-1.594,0.703-2.516c0,1.143,0.399,2.184,1.045,3.025C1669.657,184.403,1669.183,184.191,1668.657,184.191z"/>
	</g>
	<circle fill="#260C02" cx="980.288" cy="81.72" r="1"/>
	<circle fill="#F7EBBA" cx="904.366" cy="175.735" r="3.5"/>
</g>
<circle fill="#F7EBBA" cx="1022.288" cy="181.72" r="2"/>
<circle fill="#F7EBBA" cx="1022.288" cy="166.72" r="2"/>
<circle fill="#F7EBBA" cx="30.087" cy="173.22" r="1.5"/>
<circle fill="#260C02" cx="1376.59" cy="85.026" r="2.68"/>
<circle fill="#260C02" cx="1239.903" cy="90.77" r="0.766"/>
<circle fill="#260C02" cx="1885.052" cy="88.09" r="1.914"/>
<circle fill="#260C02" cx="1793.544" cy="82.347" r="0.766"/>
<circle fill="#260C02" cx="1665.28" cy="92.684" r="1.148"/>
<circle fill="#260C02" cx="1587.173" cy="76.603" r="1.149"/>
<circle fill="#260C02" cx="1529.741" cy="88.855" r="1.148"/>
<circle fill="#F7EBBA" cx="1520.936" cy="178.065" r="1.532"/>
<circle fill="#F7EBBA" cx="1314.182" cy="177.3" r="0.766"/>
<circle fill="#F7EBBA" cx="1135.761" cy="173.471" r="1.532"/>
<circle fill="#F7EBBA" cx="1824.557" cy="170.025" r="3.446"/>
<circle fill="#F7EBBA" cx="1882.372" cy="179.598" r="1.531"/>
<circle fill="#F7EBBA" cx="1745.302" cy="176.535" r="1.531"/>
</svg>
