<?xml version="1.0" encoding="utf-8"?>
<!DOCTYPE svg PUBLIC "-//W3C//DTD SVG 1.1//EN" "http://www.w3.org/Graphics/SVG/1.1/DTD/svg11.dtd">
<svg version="1.1" id="Layer_1" xmlns="http://www.w3.org/2000/svg" xmlns:xlink="http://www.w3.org/1999/xlink" x="0px" y="0px"
	 width="443px" height="218.024px" viewBox="0 0 443 218.024" enable-background="new 0 0 443 218.024" xml:space="preserve">
<polygon fill="#F4CA19" points="443,163.519 221.5,218.024 0,163.519 0,54.506 221.5,0 443,54.506 "/>
<g>
	<g>
		<g>
			<path fill="#FFFFFF" stroke="#FFFFFF" stroke-width="5" d="M68.822,107.054c5.48-2.427,7.855-8.949,7.855-15.139
				c0-12.278-5.389-18.567-17.537-17.439l-16.807,1.56v65.948l17.903,1.533c12.879,1.104,17.72-7.495,17.72-19.411
				C77.957,114.789,74.577,109.788,68.822,107.054z M53.66,84.586l4.293-0.29c5.024-0.339,7.398,2.896,7.398,9.397
				c0,5.822-3.288,8.991-7.581,9.075l-4.11,0.081V84.586z M58.41,133.637l-4.75-0.287v-20.898l3.654,0.021
				c6.759,0.038,9.317,3.653,9.317,10.858C66.63,130.435,64.438,134.002,58.41,133.637z"/>
			<path fill="#FFFFFF" stroke="#FFFFFF" stroke-width="5" d="M121.585,92.308c0-17.083-6.485-23.026-19.181-21.848l-15.894,1.475
				v73.832l11.326,0.97V115.64c2.01,0.025,4.385-0.052,5.846-0.248l8.039,32.534l11.509,0.986l-9.591-36.453
				C117.475,110.389,121.585,105.175,121.585,92.308z M101.856,104.873l-4.019,0.051V81.6l4.019-0.271
				c6.12-0.414,8.403,2.135,8.403,11.434S107.976,104.795,101.856,104.873z"/>
			<polygon fill="#FFFFFF" stroke="#FFFFFF" stroke-width="5" points="142.618,113.412 157.232,113.508 157.232,100.576 
				142.618,100.87 142.618,79.27 161.617,78.014 161.617,64.965 131.292,67.779 131.292,149.603 162.895,152.31 162.895,139.227 
				142.618,138.031 			"/>
			<polygon fill="#FFFFFF" stroke="#FFFFFF" stroke-width="5" points="216.333,59.887 210.031,121.557 209.848,121.553 
				202.176,61.201 192.859,62.066 185.46,121.043 185.278,121.039 178.336,63.414 167.741,64.396 180.254,153.797 189.753,154.61 
				197.426,93.413 197.608,93.407 205.829,155.987 215.329,156.801 226.929,58.904 			"/>
		</g>
		<g>
			<polygon fill="#FFFFFF" stroke="#FFFFFF" stroke-width="5" points="257.64,99.693 245.583,99.425 245.583,60.065 234.257,58.904 
				234.257,157.795 245.583,156.723 245.583,113.883 257.64,113.795 257.64,155.582 268.966,154.511 268.966,62.462 257.64,61.301 
							"/>
			<path fill="#FFFFFF" stroke="#FFFFFF" stroke-width="5" d="M288.108,64.424l-12.147,89.425l10.96-1.036l2.01-19.719l12.423-0.633
				l2.008,18.795l10.962-1.037l-12.148-84.353L288.108,64.424z M290.575,119.879l4.476-37.409l0.183,0.012l4.476,37.202
				L290.575,119.879z"/>
			<polygon fill="#FFFFFF" stroke="#FFFFFF" stroke-width="5" points="344.697,101.629 332.641,101.361 332.641,68.989 
				321.314,67.828 321.314,149.558 332.641,148.486 332.641,113.252 344.697,113.164 344.697,147.346 356.024,146.273 
				356.024,71.386 344.697,70.225 			"/>
			<path fill="#FFFFFF" stroke="#FFFFFF" stroke-width="5" d="M389.231,74.79l-14.066-1.442l-12.148,72.265l10.96-1.037l2.01-15.915
				l12.422-0.633l2.01,14.992l10.962-1.037L389.231,74.79z M377.63,118.012l4.477-30.041l0.182,0.012l4.476,29.834L377.63,118.012z"
				/>
		</g>
	</g>
</g>
<g>
	<g>
		<g>
			<path fill="#260C02" d="M71.822,105.054c5.48-2.427,7.855-8.949,7.855-15.139c0-12.278-5.389-18.567-17.537-17.439l-16.807,1.56
				v65.948l17.903,1.533c12.879,1.104,17.72-7.495,17.72-19.411C80.957,112.789,77.577,107.788,71.822,105.054z M56.66,82.586
				l4.293-0.29c5.024-0.339,7.398,2.896,7.398,9.397c0,5.822-3.288,8.991-7.581,9.075l-4.11,0.081V82.586z M61.41,131.637
				l-4.75-0.287v-20.898l3.654,0.021c6.759,0.038,9.317,3.653,9.317,10.858C69.63,128.435,67.438,132.002,61.41,131.637z"/>
			<path fill="#260C02" d="M124.585,90.308c0-17.083-6.485-23.026-19.181-21.848l-15.894,1.475v73.832l11.326,0.97V113.64
				c2.01,0.025,4.385-0.052,5.846-0.248l8.039,32.534l11.509,0.986l-9.591-36.453C120.475,108.389,124.585,103.175,124.585,90.308z
				 M104.856,102.873l-4.019,0.051V79.6l4.019-0.271c6.12-0.414,8.403,2.135,8.403,11.434S110.976,102.795,104.856,102.873z"/>
			<polygon fill="#260C02" points="145.618,111.412 160.232,111.508 160.232,98.576 145.618,98.87 145.618,77.27 164.617,76.014 
				164.617,62.965 134.292,65.779 134.292,147.603 165.895,150.31 165.895,137.227 145.618,136.031 			"/>
			<polygon fill="#260C02" points="219.333,57.887 213.031,119.557 212.848,119.553 205.176,59.201 195.859,60.066 188.46,119.043 
				188.278,119.039 181.336,61.414 170.741,62.396 183.254,151.797 192.753,152.61 200.426,91.413 200.608,91.407 208.829,153.987 
				218.329,154.801 229.929,56.904 			"/>
		</g>
		<g>
			<polygon fill="#260C02" points="260.64,97.693 248.583,97.425 248.583,58.065 237.257,56.904 237.257,155.795 248.583,154.723 
				248.583,111.883 260.64,111.795 260.64,153.582 271.966,152.511 271.966,60.462 260.64,59.301 			"/>
			<path fill="#260C02" d="M291.108,62.424l-12.147,89.425l10.96-1.036l2.01-19.719l12.423-0.633l2.008,18.795l10.962-1.037
				l-12.148-84.353L291.108,62.424z M293.575,117.879l4.476-37.409l0.183,0.012l4.476,37.202L293.575,117.879z"/>
			<polygon fill="#260C02" points="347.697,99.629 335.641,99.361 335.641,66.989 324.314,65.828 324.314,147.558 335.641,146.486 
				335.641,111.252 347.697,111.164 347.697,145.346 359.024,144.273 359.024,69.386 347.697,68.225 			"/>
			<path fill="#260C02" d="M392.231,72.79l-14.066-1.442l-12.148,72.265l10.96-1.037l2.01-15.915l12.422-0.633l2.01,14.992
				l10.962-1.037L392.231,72.79z M380.63,116.012l4.477-30.041l0.182,0.012l4.476,29.834L380.63,116.012z"/>
		</g>
	</g>
</g>
<g>
	<polygon fill="#F7EBBA" points="82.153,53.875 82.388,53.311 210.047,27.056 212.847,29.411 211.197,32.944 82.591,54.109 	"/>
	<polygon fill="#F7EBBA" points="360.846,53.875 360.612,53.311 232.953,27.056 230.153,29.411 231.802,32.944 360.409,54.109 	"/>
</g>
<polygon fill="#F7EBBA" points="350.846,166.303 350.409,166.056 221.5,186.693 92.591,166.056 92.153,166.303 92.388,166.896 
	221.5,192.303 350.612,166.896 "/>
</svg>
